# xmcd
#
# Track frame offsets: 
#        150
#        21651
#        48319
#        72389
#        94706
#        116493
#        139471
#        161722
#        184211
#        211504
#        233949
#
# Disc length: 3360 seconds
#
# Revision: 1
# Processed by: cddbd v1.5.2PL0 Copyright (c) Steve Scherf et al.
# Submitted via: ExactAudioCopy v0.99pb5
#
DISCID=9f0d1e0b
DTITLE=Carlos Cannon - Chicago's Finest
DYEAR=2001
DGENRE=Orpheus Music
TTITLE0=I Wanna Be Where You Are
TTITLE1=In The Name Of Love
TTITLE2=Heaven
TTITLE3=If You Want Me To Stay
TTITLE4=I Have Nothing
TTITLE5=The Secret Garden
TTITLE6=Imagine
TTITLE7=Mercy
TTITLE8=No Ending Love
TTITLE9=I Will Always Stay
TTITLE10=Precious Lord, Take My Hand
EXTD=YEAR: 2001
EXTT0=
EXTT1=
EXTT2=
EXTT3=
EXTT4=
EXTT5=
EXTT6=
EXTT7=
EXTT8=
EXTT9=
EXTT10=
PLAYORDER=
